<svg width="128" height="76" viewBox="0 0 128 76" fill="none" xmlns="http://www.w3.org/2000/svg">
<rect x="36" y="72" width="4" height="4" fill="#BC6C25"/>
<rect x="44" y="72" width="4" height="4" fill="#BC6C25"/>
<rect x="48" y="72" width="4" height="4" fill="#BC6C25"/>
<rect x="52" y="72" width="4" height="4" fill="#BC6C25"/>
<rect x="56" y="72" width="4" height="4" fill="#BC6C25"/>
<rect x="60" y="68" width="4" height="4" fill="#BC6C25"/>
<rect x="64" y="68" width="4" height="4" fill="#BC6C25"/>
<rect x="68" y="68" width="4" height="4" fill="#BC6C25"/>
<rect x="72" y="64" width="4" height="4" fill="#BC6C25"/>
<rect x="76" y="64" width="4" height="4" fill="#BC6C25"/>
<rect x="80" y="64" width="4" height="4" fill="#BC6C25"/>
<rect x="84" y="64" width="4" height="4" fill="#BC6C25"/>
<rect x="88" y="60" width="4" height="4" fill="#BC6C25"/>
<rect x="92" y="60" width="4" height="4" fill="#BC6C25"/>
<rect x="96" y="56" width="4" height="4" fill="#BC6C25"/>
<rect x="100" y="56" width="4" height="4" fill="#BC6C25"/>
<rect x="104" y="52" width="4" height="4" fill="#BC6C25"/>
<rect x="108" y="52" width="4" height="4" fill="#BC6C25"/>
<rect x="112" y="48" width="4" height="4" fill="#BC6C25"/>
<rect x="116" y="44" width="4" height="4" fill="#BC6C25"/>
<rect x="120" y="40" width="4" height="4" fill="#BC6C25"/>
<rect x="124" y="36" width="4" height="4" fill="#BC6C25"/>
<rect x="124" y="32" width="4" height="4" fill="#BC6C25"/>
<rect x="120" y="28" width="4" height="4" fill="#BC6C25"/>
<rect x="116" y="28" width="4" height="4" fill="#BC6C25"/>
<rect x="112" y="32" width="4" height="4" fill="#BC6C25"/>
<rect x="108" y="32" width="4" height="4" fill="#BC6C25"/>
<rect x="104" y="36" width="4" height="4" fill="#BC6C25"/>
<rect x="100" y="40" width="4" height="4" fill="#BC6C25"/>
<rect x="96" y="40" width="4" height="4" fill="#BC6C25"/>
<rect x="96" y="44" width="4" height="4" fill="#BC6C25"/>
<rect x="92" y="48" width="4" height="4" fill="#BC6C25"/>
<rect x="88" y="52" width="4" height="4" fill="#BC6C25"/>
<rect x="84" y="56" width="4" height="4" fill="#BC6C25"/>
<rect x="80" y="60" width="4" height="4" fill="#BC6C25"/>
<rect x="92" y="36" width="4" height="4" fill="#BC6C25"/>
<rect x="92" y="32" width="4" height="4" fill="#BC6C25"/>
<rect x="88" y="32" width="4" height="4" fill="#BC6C25"/>
<rect x="88" y="48" width="4" height="4" fill="#BC6C25"/>
<rect x="84" y="48" width="4" height="4" fill="#BC6C25"/>
<rect x="80" y="48" width="4" height="4" fill="#BC6C25"/>
<rect x="76" y="52" width="4" height="4" fill="#BC6C25"/>
<rect x="72" y="52" width="4" height="4" fill="#BC6C25"/>
<rect x="68" y="52" width="4" height="4" fill="#BC6C25"/>
<rect x="64" y="56" width="4" height="4" fill="#BC6C25"/>
<rect x="60" y="56" width="4" height="4" fill="#BC6C25"/>
<rect x="56" y="56" width="4" height="4" fill="#BC6C25"/>
<rect x="52" y="56" width="4" height="4" fill="#BC6C25"/>
<rect x="48" y="56" width="4" height="4" fill="#BC6C25"/>
<rect x="44" y="56" width="4" height="4" fill="#BC6C25"/>
<rect x="40" y="52" width="4" height="4" fill="#BC6C25"/>
<rect x="36" y="52" width="4" height="4" fill="#BC6C25"/>
<rect x="32" y="48" width="4" height="4" fill="#BC6C25"/>
<rect x="32" y="44" width="4" height="4" fill="#BC6C25"/>
<rect x="32" y="40" width="4" height="4" fill="#BC6C25"/>
<rect x="32" y="68" width="4" height="4" fill="#BC6C25"/>
<rect x="28" y="68" width="4" height="4" fill="#BC6C25"/>
<rect x="24" y="68" width="4" height="4" fill="#BC6C25"/>
<rect x="20" y="64" width="4" height="4" fill="#BC6C25"/>
<rect x="16" y="64" width="4" height="4" fill="#BC6C25"/>
<rect x="12" y="60" width="4" height="4" fill="#BC6C25"/>
<rect x="8" y="56" width="4" height="4" fill="#BC6C25"/>
<rect x="8" y="52" width="4" height="4" fill="#BC6C25"/>
<rect x="4" y="48" width="4" height="4" fill="#BC6C25"/>
<rect x="4" y="44" width="4" height="4" fill="#BC6C25"/>
<rect y="40" width="4" height="4" fill="#BC6C25"/>
<rect y="36" width="4" height="4" fill="#BC6C25"/>
<rect y="32" width="4" height="4" fill="#BC6C25"/>
<rect x="4" y="28" width="4" height="4" fill="#BC6C25"/>
<rect x="8" y="24" width="4" height="4" fill="#BC6C25"/>
<rect x="12" y="24" width="4" height="4" fill="#BC6C25"/>
<rect x="16" y="24" width="4" height="4" fill="#BC6C25"/>
<rect x="20" y="28" width="4" height="4" fill="#BC6C25"/>
<rect x="24" y="28" width="4" height="4" fill="#BC6C25"/>
<rect x="28" y="32" width="4" height="4" fill="#BC6C25"/>
<rect x="32" y="32" width="4" height="4" fill="#BC6C25"/>
<rect x="32" y="36" width="4" height="4" fill="#BC6C25"/>
<rect x="36" y="32" width="4" height="4" fill="#BC6C25"/>
<rect x="36" y="36" width="4" height="4" fill="#BC6C25"/>
<rect x="40" y="40" width="4" height="4" fill="#BC6C25"/>
<rect x="44" y="40" width="4" height="4" fill="#BC6C25"/>
<rect x="48" y="44" width="4" height="4" fill="#BC6C25"/>
<rect x="52" y="44" width="4" height="4" fill="#BC6C25"/>
<rect x="56" y="44" width="4" height="4" fill="#BC6C25"/>
<rect x="60" y="44" width="4" height="4" fill="#BC6C25"/>
<rect x="64" y="44" width="4" height="4" fill="#BC6C25"/>
<rect x="68" y="40" width="4" height="4" fill="#BC6C25"/>
<rect x="72" y="40" width="4" height="4" fill="#BC6C25"/>
<rect x="76" y="40" width="4" height="4" fill="#BC6C25"/>
<rect x="80" y="36" width="4" height="4" fill="#BC6C25"/>
<rect x="84" y="36" width="4" height="4" fill="#BC6C25"/>
<rect x="36" y="28" width="4" height="4" fill="#BC6C25"/>
<rect x="36" y="24" width="4" height="4" fill="#BC6C25"/>
<rect x="36" y="20" width="4" height="4" fill="#BC6C25"/>
<rect x="40" y="16" width="4" height="4" fill="#BC6C25"/>
<rect x="40" y="12" width="4" height="4" fill="#BC6C25"/>
<rect x="40" y="8" width="4" height="4" fill="#BC6C25"/>
<rect x="44" y="4" width="4" height="4" fill="#BC6C25"/>
<rect x="48" width="4" height="4" fill="#BC6C25"/>
<rect x="48" y="8" width="4" height="4" fill="#BC6C25"/>
<rect x="52" y="12" width="4" height="4" fill="#BC6C25"/>
<rect x="56" y="8" width="4" height="4" fill="#BC6C25"/>
<rect x="52" y="4" width="4" height="4" fill="#BC6C25"/>
<rect x="56" width="4" height="4" fill="#BC6C25"/>
<rect x="60" width="4" height="4" fill="#BC6C25"/>
<rect x="60" y="8" width="4" height="4" fill="#BC6C25"/>
<rect x="64" y="4" width="4" height="4" fill="#BC6C25"/>
<rect x="68" y="4" width="4" height="4" fill="#BC6C25"/>
<rect x="72" width="4" height="4" fill="#BC6C25"/>
<rect x="76" width="4" height="4" fill="#BC6C25"/>
<rect x="80" width="4" height="4" fill="#BC6C25"/>
<rect x="84" y="4" width="4" height="4" fill="#BC6C25"/>
<rect x="84" y="8" width="4" height="4" fill="#BC6C25"/>
<rect x="88" y="12" width="4" height="4" fill="#BC6C25"/>
<rect x="88" y="16" width="4" height="4" fill="#BC6C25"/>
<rect x="88" y="20" width="4" height="4" fill="#BC6C25"/>
<rect x="88" y="24" width="4" height="4" fill="#BC6C25"/>
<rect x="88" y="28" width="4" height="4" fill="#BC6C25"/>
<rect x="40" y="72" width="4" height="4" fill="#BC6C25"/>
</svg>
